<svg xmlns="http://www.w3.org/2000/svg" viewBox="0 0 48 48" width="48" height="48">
  <defs>
    <linearGradient id="g" x1="0" y1="0" x2="1" y2="1">
      <stop offset="0%" stop-color="#3563eb"/>
      <stop offset="100%" stop-color="#1e3aac"/>
    </linearGradient>
  </defs>
  <rect width="48" height="48" rx="13" fill="url(#g)"/>
  <path d="M18.5 14c-3.2 0-5 1.6-5 3.6 0 7.6 9.3 16.9 16.9 16.9 2 0 3.6-1.8 3.6-5 0-1-.6-1.6-1.6-2l-3.4-1.3c-1-.4-1.8-.1-2.4.7l-1.2 1.6c-2.6-1.3-4.7-3.4-6-6l1.6-1.2c.8-.6 1.1-1.4.7-2.4l-1.3-3.4c-.4-1-1-1.5-1.9-1.5z" fill="#fff"/>
  <path d="M31 12.5a10 10 0 0 1 6 6" stroke="#f97316" stroke-width="3.2" fill="none" stroke-linecap="round"/>
</svg>
